<?xml version="1.0" standalone="no"?>
<!DOCTYPE svg PUBLIC "-//W3C//DTD SVG 20010904//EN"
 "http://www.w3.org/TR/2001/REC-SVG-20010904/DTD/svg10.dtd">
<svg version="1.0" xmlns="http://www.w3.org/2000/svg"
 width="72.000000pt" height="72.000000pt" viewBox="0 0 72.000000 72.000000"
 preserveAspectRatio="xMidYMid meet">
<metadata>
Created by potrace 1.11, written by Peter Selinger 2001-2013
</metadata>
<g transform="translate(0.000000,72.000000) scale(0.100000,-0.100000)"
fill="#000000" stroke="none">
<path d="M230 705 c-105 -33 -181 -138 -186 -258 -5 -121 39 -214 124 -260 93
-50 194 -47 268 9 24 19 45 34 47 34 2 0 0 -135 -2 -167 -1 -13 -56 -35 -65
-26 -3 4 -6 -3 -6 -14 0 -20 5 -21 128 -21 70 1 130 3 134 5 13 7 -4 33 -22
33 -10 0 -22 6 -27 13 -11 15 -11 297 1 315 4 7 19 17 32 22 28 11 32 40 7 41
-10 0 -54 1 -98 2 l-80 2 1 -27 c1 -16 -1 -28 -3 -28 -2 0 -22 14 -43 31 -49
40 -99 43 -135 9 -34 -32 -35 -97 -2 -128 45 -42 111 -13 109 48 -1 36 13 38
51 7 l28 -22 -23 -32 c-31 -43 -86 -67 -134 -59 -70 14 -117 97 -118 210 0
125 28 207 80 226 30 12 68 -4 61 -24 -3 -8 -8 -33 -12 -58 -9 -58 13 -87 71
-92 63 -5 87 18 87 83 0 55 -21 89 -75 117 -39 20 -145 25 -198 9z"/>
</g>
</svg>
